<svg width="61" height="61" viewBox="0 0 61 61" fill="none" xmlns="http://www.w3.org/2000/svg">
<path opacity="0.2" fill-rule="evenodd" clip-rule="evenodd" d="M9.97765 27.5444C11.5887 25.9364 12.8277 22.8584 12.7827 20.5844C12.7601 19.5108 12.9552 18.4437 13.3564 17.4475C13.7575 16.4513 14.3563 15.5468 15.1167 14.7884C15.9044 13.9989 16.8495 13.3839 17.8904 12.9833C18.9313 12.5827 20.0448 12.4056 21.1587 12.4634C23.3007 12.5714 26.0067 11.5334 27.5187 10.0154C28.2592 9.27449 29.1384 8.68675 30.1061 8.28574C31.0739 7.88474 32.1111 7.67834 33.1587 7.67834C34.2062 7.67834 35.2434 7.88474 36.2112 8.28574C37.1789 8.68675 38.0581 9.27449 38.7987 10.0154C40.3137 11.5304 43.0167 12.5714 45.1587 12.4634C46.273 12.4052 47.3871 12.5821 48.4286 12.9827C49.47 13.3832 50.4155 13.9985 51.2037 14.7884C51.9638 15.5474 52.5623 16.4525 52.9629 17.4492C53.3636 18.4459 53.558 19.5135 53.5347 20.5874C53.4897 22.8584 54.7347 25.9394 56.3397 27.5474C57.8345 29.0479 58.6724 31.0806 58.669 33.1986C58.6656 35.3167 57.8213 37.3467 56.3217 38.8424C54.7377 40.4264 53.5797 43.1564 53.5377 45.3944C53.4987 47.4538 52.6619 49.4177 51.2037 50.8724C49.8062 52.2735 47.9362 53.1026 45.9597 53.1974C43.5867 53.3174 40.4787 54.6974 38.7987 56.3774C38.0581 57.1183 37.1789 57.7061 36.2112 58.1071C35.2434 58.5081 34.2062 58.7145 33.1587 58.7145C32.1111 58.7145 31.0739 58.5081 30.1061 58.1071C29.1384 57.7061 28.2592 57.1183 27.5187 56.3774C25.8387 54.6974 22.7337 53.3174 20.3607 53.1974C18.3841 53.1026 16.5141 52.2735 15.1167 50.8724C13.6595 49.4194 12.8229 47.4578 12.7827 45.4004C12.7377 43.1564 11.5647 40.4084 9.97765 38.8214C9.23719 38.081 8.64982 37.2019 8.24908 36.2344C7.84835 35.267 7.64209 34.2301 7.64209 33.1829C7.64209 32.1357 7.84835 31.0988 8.24908 30.1314C8.64982 29.1639 9.23719 28.2849 9.97765 27.5444Z" fill="#EE9E42"/>
<path fill-rule="evenodd" clip-rule="evenodd" d="M12.7376 12.4124C12.2632 12.8851 11.8896 13.4493 11.6395 14.0707C11.3894 14.692 11.268 15.3577 11.2827 16.0274C11.3127 17.6774 10.8927 19.4234 10.2837 20.9354C9.67465 22.4504 8.76565 24.0014 7.60165 25.1684C7.13967 25.6302 6.7732 26.1786 6.52317 26.7822C6.27314 27.3857 6.14445 28.0326 6.14445 28.6859C6.14445 29.3391 6.27314 29.986 6.52317 30.5896C6.7732 31.1931 7.13967 31.7415 7.60165 32.2034C9.73165 34.3364 11.2197 37.8224 11.2827 40.8404C11.3063 42.0991 11.8076 43.3018 12.685 44.2048C13.5623 45.1077 14.7501 45.6434 16.0077 45.7034C17.6577 45.7844 19.3947 46.2854 20.9187 46.9634C22.4397 47.6384 23.9757 48.5894 25.1427 49.7564C25.6045 50.2183 26.1529 50.5848 26.7565 50.8348C27.36 51.0849 28.0069 51.2136 28.6602 51.2136C29.3134 51.2136 29.9603 51.0849 30.5638 50.8348C31.1674 50.5848 31.7158 50.2183 32.1777 49.7564C33.3447 48.5894 34.8777 47.6384 36.4017 46.9604C37.9257 46.2854 39.6627 45.7844 41.3127 45.7034C42.5715 45.6441 43.7605 45.1077 44.6381 44.2034C45.5158 43.299 46.0162 42.0944 46.0377 40.8344C46.0977 37.8284 47.5647 34.3574 49.6977 32.2244C50.1624 31.7625 50.5316 31.2135 50.7841 30.6089C51.0367 30.0044 51.1677 29.3559 51.1696 28.7007C51.1716 28.0455 51.0445 27.3963 50.7955 26.7902C50.5465 26.1841 50.1806 25.633 49.7187 25.1684C48.5546 24.0044 47.6487 22.4534 47.0367 20.9384C46.4247 19.4264 46.0047 17.6774 46.0377 16.0274C46.0519 15.3575 45.9301 14.6917 45.6795 14.0703C45.4288 13.4489 45.0547 12.8849 44.5797 12.4124C44.0888 11.9193 43.4996 11.5351 42.8503 11.2849C42.2011 11.0347 41.5065 10.9242 40.8117 10.9604C37.8237 11.1104 34.2927 9.75435 32.1777 7.63935C31.7158 7.17737 31.1674 6.8109 30.5638 6.56087C29.9603 6.31084 29.3134 6.18215 28.6602 6.18215C28.0069 6.18215 27.36 6.31084 26.7565 6.56087C26.1529 6.8109 25.6045 7.17737 25.1427 7.63935C23.0277 9.75435 19.4967 11.1104 16.5086 10.9604C15.8133 10.9237 15.1181 11.0341 14.4683 11.2843C13.8186 11.5345 13.2288 11.9189 12.7376 12.4124ZM8.28265 16.0814C8.32765 18.3554 7.08865 21.4364 5.47765 23.0444C4.73719 23.7848 4.14982 24.6639 3.74908 25.6313C3.34835 26.5988 3.14209 27.6357 3.14209 28.6829C3.14209 29.73 3.34835 30.7669 3.74908 31.7344C4.14982 32.7018 4.73719 33.5809 5.47765 34.3214C7.06765 35.9084 8.23765 38.6564 8.28265 40.8974C8.32465 42.8834 9.10165 44.8574 10.6167 46.3724C12.0141 47.7734 13.8841 48.6025 15.8607 48.6974C18.2337 48.8174 21.3417 50.1944 23.0217 51.8774C23.7621 52.6178 24.6412 53.2052 25.6086 53.6059C26.5761 54.0067 27.613 54.2129 28.6602 54.2129C29.7073 54.2129 30.7442 54.0067 31.7117 53.6059C32.6791 53.2052 33.5582 52.6178 34.2987 51.8774C35.9787 50.1944 39.0867 48.8174 41.4597 48.6974C43.4362 48.6025 45.3062 47.7734 46.7037 46.3724C48.1608 44.9172 48.9965 42.9533 49.0347 40.8944C49.0797 38.6534 50.2346 35.9264 51.8217 34.3424C53.3222 32.8465 54.1671 30.8159 54.1705 28.6971C54.1739 26.5783 53.3354 24.545 51.8397 23.0444C50.2317 21.4364 48.9897 18.3584 49.0377 16.0844C49.0607 15.0102 48.8657 13.9425 48.4645 12.9458C48.0634 11.9491 47.4644 11.0441 46.7037 10.2854C45.9155 9.49543 44.97 8.88019 43.9285 8.47962C42.8871 8.07906 41.773 7.90214 40.6587 7.96035C38.5167 8.06835 35.8137 7.03035 34.2987 5.51235C33.5581 4.77144 32.6789 4.18369 31.7112 3.78269C30.7434 3.38169 29.7062 3.17529 28.6587 3.17529C27.6111 3.17529 26.5739 3.38169 25.6061 3.78269C24.6384 4.18369 23.7592 4.77144 23.0187 5.51235C21.5067 7.03035 18.8007 8.06835 16.6587 7.96035C15.5448 7.90256 14.4313 8.0797 13.3904 8.48025C12.3495 8.8808 11.4044 9.49582 10.6167 10.2854C9.85632 11.0437 9.25751 11.9483 8.85637 12.9444C8.45522 13.9406 8.26006 15.0077 8.28265 16.0814Z" fill="#EE9E42"/>
<path fill-rule="evenodd" clip-rule="evenodd" d="M37.0376 19.8734C37.2098 19.9691 37.3614 20.0978 37.4838 20.2522C37.6062 20.4065 37.6971 20.5834 37.7511 20.7729C37.8052 20.9623 37.8214 21.1605 37.7988 21.3562C37.7762 21.5519 37.7153 21.7412 37.6196 21.9134L29.2886 36.9134C29.1929 37.0856 29.0642 37.2372 28.9098 37.3596C28.7555 37.482 28.5786 37.5729 28.3891 37.6269C28.1997 37.6809 28.0015 37.6971 27.8058 37.6746C27.6101 37.652 27.4208 37.5911 27.2486 37.4954C27.0764 37.3997 26.9248 37.271 26.8024 37.1166C26.68 36.9623 26.5891 36.7854 26.5351 36.5959C26.4811 36.4065 26.4648 36.2083 26.4874 36.0126C26.51 35.8169 26.5709 35.6276 26.6666 35.4554L34.9976 20.4554C35.0933 20.2832 35.222 20.1316 35.3764 20.0092C35.5307 19.8868 35.7076 19.7959 35.897 19.7419C36.0865 19.6878 36.2847 19.6716 36.4804 19.6942C36.6761 19.7168 36.8654 19.7777 37.0376 19.8734Z" fill="#EE9E42"/>
<path fill-rule="evenodd" clip-rule="evenodd" d="M18.4736 28.5794C18.7222 28.2694 19.0834 28.0707 19.4783 28.0269C19.8731 27.983 20.2692 28.0975 20.5796 28.3454L28.9137 35.0114C29.2244 35.26 29.4236 35.6219 29.4674 36.0174C29.5113 36.4129 29.3963 36.8097 29.1477 37.1204C28.899 37.4311 28.5371 37.6303 28.1416 37.6741C27.7461 37.718 27.3494 37.603 27.0387 37.3544L18.7076 30.6914C18.5538 30.5683 18.4256 30.4161 18.3306 30.2435C18.2355 30.0709 18.1754 29.8812 18.1537 29.6853C18.1319 29.4895 18.149 29.2913 18.2039 29.102C18.2588 28.9128 18.3505 28.7362 18.4736 28.5824" fill="#EE9E42"/>
</svg>
