<svg width="277" height="173" viewBox="0 0 277 173" fill="none" xmlns="http://www.w3.org/2000/svg">
<path d="M7.37081 126.423V94.7226H21.7721C25.2139 94.7226 28.2481 95.3868 30.8748 96.7152C33.5014 98.0134 35.5544 99.84 37.0338 102.195C38.5132 104.55 39.2529 107.343 39.2529 110.573C39.2529 113.773 38.5132 116.566 37.0338 118.951C35.5544 121.306 33.5014 123.148 30.8748 124.476C28.2481 125.774 25.2139 126.423 21.7721 126.423H7.37081ZM14.7073 120.4H21.4098C23.5232 120.4 25.3497 120.008 26.8895 119.223C28.4595 118.408 29.6671 117.26 30.5125 115.781C31.388 114.302 31.8258 112.566 31.8258 110.573C31.8258 108.55 31.388 106.814 30.5125 105.365C29.6671 103.886 28.4595 102.753 26.8895 101.968C25.3497 101.153 23.5232 100.746 21.4098 100.746H14.7073V120.4ZM51.5334 107.493H66.7951V113.2H51.5334V107.493ZM52.0769 120.536H69.3312V126.423H44.7856V94.7226H68.7425V100.61H52.0769V120.536ZM85.5846 126.967C83.0486 126.967 80.6182 126.635 78.2934 125.971C75.9687 125.276 74.0968 124.386 72.6778 123.299L75.1686 117.774C76.5272 118.74 78.1274 119.54 79.969 120.174C81.8409 120.778 83.7279 121.08 85.6299 121.08C87.0791 121.08 88.2415 120.944 89.117 120.672C90.0228 120.37 90.687 119.963 91.1096 119.449C91.5323 118.936 91.7437 118.347 91.7437 117.683C91.7437 116.838 91.4116 116.174 90.7473 115.69C90.0831 115.177 89.2076 114.77 88.1207 114.468C87.0338 114.136 85.8262 113.834 84.4977 113.562C83.1995 113.26 81.8862 112.898 80.5578 112.475C79.2595 112.052 78.067 111.509 76.9801 110.845C75.8932 110.181 75.0026 109.305 74.3082 108.218C73.644 107.131 73.3119 105.742 73.3119 104.052C73.3119 102.24 73.7949 100.595 74.761 99.1154C75.7573 97.6058 77.2367 96.4133 79.1992 95.5377C81.1918 94.632 83.6826 94.1791 86.6715 94.1791C88.6641 94.1791 90.6266 94.4207 92.5588 94.9037C94.4911 95.3566 96.1969 96.051 97.6763 96.9869L95.4119 102.557C93.9325 101.712 92.4532 101.093 90.9738 100.7C89.4944 100.278 88.0452 100.066 86.6262 100.066C85.2072 100.066 84.0449 100.232 83.1391 100.565C82.2334 100.897 81.5843 101.334 81.1918 101.878C80.7993 102.391 80.6031 102.995 80.6031 103.689C80.6031 104.505 80.9352 105.169 81.5994 105.682C82.2636 106.165 83.1391 106.558 84.226 106.859C85.3129 107.161 86.5055 107.463 87.8037 107.765C89.1321 108.067 90.4454 108.414 91.7437 108.807C93.0721 109.199 94.2797 109.728 95.3666 110.392C96.4535 111.056 97.3291 111.932 97.9933 113.019C98.6877 114.105 99.0349 115.479 99.0349 117.14C99.0349 118.921 98.5367 120.551 97.5404 122.031C96.5441 123.51 95.0496 124.703 93.057 125.608C91.0945 126.514 88.6038 126.967 85.5846 126.967ZM119.219 126.967C116.774 126.967 114.494 126.574 112.381 125.789C110.298 124.974 108.486 123.827 106.946 122.348C105.407 120.868 104.199 119.132 103.323 117.14C102.478 115.147 102.055 112.958 102.055 110.573C102.055 108.188 102.478 105.999 103.323 104.006C104.199 102.014 105.407 100.278 106.946 98.7984C108.516 97.319 110.343 96.1868 112.426 95.4019C114.509 94.5867 116.789 94.1791 119.264 94.1791C122.012 94.1791 124.487 94.6622 126.691 95.6283C128.926 96.5642 130.797 97.953 132.307 99.7947L127.597 104.142C126.51 102.904 125.303 101.984 123.974 101.38C122.646 100.746 121.197 100.429 119.627 100.429C118.147 100.429 116.789 100.67 115.551 101.153C114.313 101.636 113.241 102.331 112.335 103.237C111.43 104.142 110.72 105.214 110.207 106.452C109.724 107.69 109.482 109.063 109.482 110.573C109.482 112.083 109.724 113.456 110.207 114.694C110.72 115.932 111.43 117.004 112.335 117.91C113.241 118.815 114.313 119.51 115.551 119.993C116.789 120.476 118.147 120.717 119.627 120.717C121.197 120.717 122.646 120.415 123.974 119.812C125.303 119.178 126.51 118.227 127.597 116.958L132.307 121.306C130.797 123.148 128.926 124.552 126.691 125.518C124.487 126.484 121.997 126.967 119.219 126.967ZM151.996 126.967C149.49 126.967 147.165 126.559 145.021 125.744C142.908 124.929 141.066 123.782 139.496 122.302C137.957 120.823 136.749 119.087 135.873 117.094C135.028 115.102 134.605 112.928 134.605 110.573C134.605 108.218 135.028 106.044 135.873 104.052C136.749 102.059 137.972 100.323 139.542 98.8437C141.112 97.3643 142.953 96.217 145.067 95.4019C147.18 94.5867 149.475 94.1791 151.95 94.1791C154.456 94.1791 156.751 94.5867 158.834 95.4019C160.947 96.217 162.774 97.3643 164.314 98.8437C165.884 100.323 167.106 102.059 167.982 104.052C168.857 106.014 169.295 108.188 169.295 110.573C169.295 112.928 168.857 115.117 167.982 117.14C167.106 119.132 165.884 120.868 164.314 122.348C162.774 123.797 160.947 124.929 158.834 125.744C156.751 126.559 154.471 126.967 151.996 126.967ZM151.95 120.717C153.369 120.717 154.667 120.476 155.845 119.993C157.053 119.51 158.109 118.815 159.015 117.91C159.921 117.004 160.615 115.932 161.098 114.694C161.611 113.456 161.868 112.083 161.868 110.573C161.868 109.063 161.611 107.69 161.098 106.452C160.615 105.214 159.921 104.142 159.015 103.237C158.139 102.331 157.098 101.636 155.89 101.153C154.683 100.67 153.369 100.429 151.95 100.429C150.531 100.429 149.218 100.67 148.01 101.153C146.833 101.636 145.791 102.331 144.885 103.237C143.98 104.142 143.27 105.214 142.757 106.452C142.274 107.69 142.032 109.063 142.032 110.573C142.032 112.052 142.274 113.426 142.757 114.694C143.27 115.932 143.965 117.004 144.84 117.91C145.746 118.815 146.803 119.51 148.01 119.993C149.218 120.476 150.531 120.717 151.95 120.717ZM174.809 126.423V94.7226H180.877L199.581 117.547H196.637V94.7226H203.883V126.423H197.86L179.111 103.599H182.055V126.423H174.809ZM217.95 126.423V100.7H207.806V94.7226H235.431V100.7H225.287V126.423H217.95ZM254.334 126.967C251.828 126.967 249.503 126.559 247.359 125.744C245.246 124.929 243.404 123.782 241.834 122.302C240.295 120.823 239.087 119.087 238.211 117.094C237.366 115.102 236.943 112.928 236.943 110.573C236.943 108.218 237.366 106.044 238.211 104.052C239.087 102.059 240.31 100.323 241.88 98.8437C243.45 97.3643 245.291 96.217 247.405 95.4019C249.518 94.5867 251.813 94.1791 254.288 94.1791C256.794 94.1791 259.089 94.5867 261.172 95.4019C263.285 96.217 265.112 97.3643 266.652 98.8437C268.222 100.323 269.444 102.059 270.32 104.052C271.195 106.014 271.633 108.188 271.633 110.573C271.633 112.928 271.195 115.117 270.32 117.14C269.444 119.132 268.222 120.868 266.652 122.348C265.112 123.797 263.285 124.929 261.172 125.744C259.089 126.559 256.809 126.967 254.334 126.967ZM254.288 120.717C255.707 120.717 257.005 120.476 258.183 119.993C259.391 119.51 260.447 118.815 261.353 117.91C262.259 117.004 262.953 115.932 263.436 114.694C263.949 113.456 264.206 112.083 264.206 110.573C264.206 109.063 263.949 107.69 263.436 106.452C262.953 105.214 262.259 104.142 261.353 103.237C260.477 102.331 259.436 101.636 258.228 101.153C257.021 100.67 255.707 100.429 254.288 100.429C252.869 100.429 251.556 100.67 250.348 101.153C249.171 101.636 248.129 102.331 247.223 103.237C246.318 104.142 245.608 105.214 245.095 106.452C244.612 107.69 244.37 109.063 244.37 110.573C244.37 112.052 244.612 113.426 245.095 114.694C245.608 115.932 246.303 117.004 247.178 117.91C248.084 118.815 249.141 119.51 250.348 119.993C251.556 120.476 252.869 120.717 254.288 120.717Z" fill="white"/>
<path d="M12.1823 166.386C10.7103 166.386 9.37692 166.044 8.18225 165.362C7.00892 164.679 6.07025 163.708 5.36625 162.45C4.68358 161.17 4.34225 159.655 4.34225 157.906C4.34225 156.156 4.68358 154.652 5.36625 153.394C6.07025 152.114 7.00892 151.132 8.18225 150.45C9.37692 149.767 10.7103 149.426 12.1823 149.426C13.7609 149.426 15.1689 149.788 16.4062 150.514C17.6649 151.218 18.6463 152.21 19.3503 153.49C20.0756 154.77 20.4383 156.242 20.4383 157.906C20.4383 159.57 20.0756 161.042 19.3503 162.322C18.6463 163.602 17.6649 164.604 16.4062 165.33C15.1689 166.034 13.7609 166.386 12.1823 166.386ZM3.79825 172.466V149.554H5.33425V155.026L5.07825 157.938L5.39825 160.85V172.466H3.79825ZM12.0863 164.946C13.3663 164.946 14.5183 164.658 15.5423 164.082C16.5663 163.484 17.3663 162.652 17.9423 161.586C18.5396 160.519 18.8383 159.292 18.8383 157.906C18.8383 156.498 18.5396 155.271 17.9423 154.226C17.3663 153.159 16.5663 152.338 15.5423 151.762C14.5183 151.164 13.3663 150.866 12.0863 150.866C10.8063 150.866 9.65425 151.164 8.63025 151.762C7.62758 152.338 6.82758 153.159 6.23025 154.226C5.65425 155.271 5.36625 156.498 5.36625 157.906C5.36625 159.292 5.65425 160.519 6.23025 161.586C6.82758 162.652 7.62758 163.484 8.63025 164.082C9.65425 164.658 10.8063 164.946 12.0863 164.946ZM35.8575 166.258V162.45L35.7935 161.874V155.602C35.7935 154.044 35.3668 152.86 34.5135 152.05C33.6815 151.239 32.4548 150.834 30.8335 150.834C29.6815 150.834 28.6042 151.036 27.6015 151.442C26.6202 151.826 25.7775 152.327 25.0735 152.946L24.2735 151.794C25.1055 151.047 26.1082 150.471 27.2815 150.066C28.4548 149.639 29.6815 149.426 30.9615 149.426C33.0308 149.426 34.6202 149.948 35.7295 150.994C36.8388 152.039 37.3935 153.596 37.3935 155.666V166.258H35.8575ZM29.8415 166.386C28.6042 166.386 27.5268 166.194 26.6095 165.81C25.7135 165.404 25.0202 164.839 24.5295 164.114C24.0602 163.388 23.8255 162.556 23.8255 161.618C23.8255 160.764 24.0175 159.996 24.4015 159.314C24.8068 158.61 25.4682 158.044 26.3855 157.618C27.3028 157.17 28.5295 156.946 30.0655 156.946H36.2095V158.194H30.0975C28.3695 158.194 27.1535 158.514 26.4495 159.154C25.7668 159.794 25.4255 160.594 25.4255 161.554C25.4255 162.62 25.8308 163.474 26.6415 164.114C27.4522 164.754 28.5935 165.074 30.0655 165.074C31.4735 165.074 32.6575 164.754 33.6175 164.114C34.5988 163.474 35.3242 162.546 35.7935 161.33L36.2415 162.418C35.7935 163.634 35.0255 164.604 33.9375 165.33C32.8708 166.034 31.5055 166.386 29.8415 166.386ZM43.9858 166.258V149.554H45.5218V154.13L45.3618 153.618C45.8311 152.274 46.6204 151.239 47.7298 150.514C48.8391 149.788 50.2258 149.426 51.8898 149.426V150.994C51.8258 150.994 51.7618 150.994 51.6978 150.994C51.6338 150.972 51.5698 150.962 51.5058 150.962C49.6498 150.962 48.1991 151.548 47.1538 152.722C46.1084 153.874 45.5858 155.484 45.5858 157.554V166.258H43.9858ZM65.5763 166.258V162.45L65.5123 161.874V155.602C65.5123 154.044 65.0856 152.86 64.2323 152.05C63.4003 151.239 62.1736 150.834 60.5523 150.834C59.4003 150.834 58.3229 151.036 57.3203 151.442C56.3389 151.826 55.4963 152.327 54.7923 152.946L53.9923 151.794C54.8243 151.047 55.8269 150.471 57.0003 150.066C58.1736 149.639 59.4003 149.426 60.6803 149.426C62.7496 149.426 64.3389 149.948 65.4483 150.994C66.5576 152.039 67.1123 153.596 67.1123 155.666V166.258H65.5763ZM59.5603 166.386C58.3229 166.386 57.2456 166.194 56.3283 165.81C55.4323 165.404 54.7389 164.839 54.2483 164.114C53.7789 163.388 53.5443 162.556 53.5443 161.618C53.5443 160.764 53.7363 159.996 54.1203 159.314C54.5256 158.61 55.1869 158.044 56.1043 157.618C57.0216 157.17 58.2483 156.946 59.7843 156.946H65.9283V158.194H59.8163C58.0883 158.194 56.8723 158.514 56.1683 159.154C55.4856 159.794 55.1443 160.594 55.1443 161.554C55.1443 162.62 55.5496 163.474 56.3602 164.114C57.1709 164.754 58.3123 165.074 59.7843 165.074C61.1923 165.074 62.3763 164.754 63.3363 164.114C64.3176 163.474 65.0429 162.546 65.5123 161.33L65.9603 162.418C65.5123 163.634 64.7443 164.604 63.6563 165.33C62.5896 166.034 61.2243 166.386 59.5603 166.386ZM88.5473 166.386C86.9259 166.386 85.4753 166.023 84.1953 165.298C82.9366 164.572 81.9339 163.57 81.1873 162.29C80.4619 161.01 80.0993 159.548 80.0993 157.906C80.0993 156.242 80.4619 154.77 81.1873 153.49C81.9339 152.21 82.9366 151.218 84.1953 150.514C85.4753 149.788 86.9259 149.426 88.5473 149.426C89.8913 149.426 91.1073 149.682 92.1953 150.194C93.3046 150.706 94.2006 151.474 94.8833 152.498L93.6993 153.362C93.1019 152.508 92.3553 151.879 91.4593 151.474C90.5633 151.068 89.5926 150.866 88.5473 150.866C87.2459 150.866 86.0726 151.164 85.0273 151.762C84.0033 152.338 83.1926 153.159 82.5953 154.226C82.0193 155.271 81.7313 156.498 81.7313 157.906C81.7313 159.314 82.0193 160.551 82.5953 161.618C83.1926 162.663 84.0033 163.484 85.0273 164.082C86.0726 164.658 87.2459 164.946 88.5473 164.946C89.5926 164.946 90.5633 164.743 91.4593 164.338C92.3553 163.932 93.1019 163.303 93.6993 162.45L94.8833 163.314C94.2006 164.338 93.3046 165.106 92.1953 165.618C91.1073 166.13 89.8913 166.386 88.5473 166.386ZM110.201 166.258V162.45L110.137 161.874V155.602C110.137 154.044 109.711 152.86 108.857 152.05C108.025 151.239 106.799 150.834 105.177 150.834C104.025 150.834 102.948 151.036 101.945 151.442C100.964 151.826 100.121 152.327 99.4173 152.946L98.6173 151.794C99.4493 151.047 100.452 150.471 101.625 150.066C102.799 149.639 104.025 149.426 105.305 149.426C107.375 149.426 108.964 149.948 110.073 150.994C111.183 152.039 111.737 153.596 111.737 155.666V166.258H110.201ZM104.185 166.386C102.948 166.386 101.871 166.194 100.953 165.81C100.057 165.404 99.3639 164.839 98.8733 164.114C98.4039 163.388 98.1693 162.556 98.1693 161.618C98.1693 160.764 98.3613 159.996 98.7453 159.314C99.1506 158.61 99.8119 158.044 100.729 157.618C101.647 157.17 102.873 156.946 104.409 156.946H110.553V158.194H104.441C102.713 158.194 101.497 158.514 100.793 159.154C100.111 159.794 99.7693 160.594 99.7693 161.554C99.7693 162.62 100.175 163.474 100.985 164.114C101.796 164.754 102.937 165.074 104.409 165.074C105.817 165.074 107.001 164.754 107.961 164.114C108.943 163.474 109.668 162.546 110.137 161.33L110.585 162.418C110.137 163.634 109.369 164.604 108.281 165.33C107.215 166.034 105.849 166.386 104.185 166.386ZM124.762 166.386C123.204 166.386 121.796 166.034 120.538 165.33C119.3 164.604 118.319 163.602 117.594 162.322C116.868 161.042 116.506 159.57 116.506 157.906C116.506 156.22 116.868 154.748 117.594 153.49C118.319 152.21 119.3 151.218 120.538 150.514C121.796 149.788 123.204 149.426 124.762 149.426C126.234 149.426 127.556 149.767 128.73 150.45C129.924 151.132 130.863 152.103 131.546 153.362C132.25 154.62 132.602 156.135 132.602 157.906C132.602 159.634 132.26 161.138 131.578 162.418C130.895 163.698 129.956 164.679 128.762 165.362C127.588 166.044 126.255 166.386 124.762 166.386ZM124.858 164.946C126.138 164.946 127.279 164.658 128.282 164.082C129.306 163.484 130.106 162.652 130.682 161.586C131.279 160.519 131.578 159.292 131.578 157.906C131.578 156.498 131.279 155.271 130.682 154.226C130.106 153.159 129.306 152.338 128.282 151.762C127.279 151.164 126.138 150.866 124.858 150.866C123.578 150.866 122.426 151.164 121.402 151.762C120.399 152.338 119.599 153.159 119.002 154.226C118.426 155.271 118.138 156.498 118.138 157.906C118.138 159.292 118.426 160.519 119.002 161.586C119.599 162.652 120.399 163.484 121.402 164.082C122.426 164.658 123.578 164.946 124.858 164.946ZM131.61 166.258V160.786L131.898 157.874L131.578 154.962V142.514H133.178V166.258H131.61ZM150.451 166.258V162.45L150.387 161.874V155.602C150.387 154.044 149.961 152.86 149.107 152.05C148.275 151.239 147.049 150.834 145.427 150.834C144.275 150.834 143.198 151.036 142.195 151.442C141.214 151.826 140.371 152.327 139.667 152.946L138.867 151.794C139.699 151.047 140.702 150.471 141.875 150.066C143.049 149.639 144.275 149.426 145.555 149.426C147.625 149.426 149.214 149.948 150.323 150.994C151.433 152.039 151.987 153.596 151.987 155.666V166.258H150.451ZM144.435 166.386C143.198 166.386 142.121 166.194 141.203 165.81C140.307 165.404 139.614 164.839 139.123 164.114C138.654 163.388 138.419 162.556 138.419 161.618C138.419 160.764 138.611 159.996 138.995 159.314C139.401 158.61 140.062 158.044 140.979 157.618C141.897 157.17 143.123 156.946 144.659 156.946H150.803V158.194H144.691C142.963 158.194 141.747 158.514 141.043 159.154C140.361 159.794 140.019 160.594 140.019 161.554C140.019 162.62 140.425 163.474 141.235 164.114C142.046 164.754 143.187 165.074 144.659 165.074C146.067 165.074 147.251 164.754 148.211 164.114C149.193 163.474 149.918 162.546 150.387 161.33L150.835 162.418C150.387 163.634 149.619 164.604 148.531 165.33C147.465 166.034 146.099 166.386 144.435 166.386ZM175.182 166.386C173.71 166.386 172.377 166.044 171.182 165.362C170.009 164.679 169.07 163.708 168.366 162.45C167.684 161.17 167.342 159.655 167.342 157.906C167.342 156.156 167.684 154.652 168.366 153.394C169.07 152.114 170.009 151.132 171.182 150.45C172.377 149.767 173.71 149.426 175.182 149.426C176.761 149.426 178.169 149.788 179.406 150.514C180.665 151.218 181.646 152.21 182.35 153.49C183.076 154.77 183.438 156.242 183.438 157.906C183.438 159.57 183.076 161.042 182.35 162.322C181.646 163.602 180.665 164.604 179.406 165.33C178.169 166.034 176.761 166.386 175.182 166.386ZM166.798 172.466V149.554H168.334V155.026L168.078 157.938L168.398 160.85V172.466H166.798ZM175.086 164.946C176.366 164.946 177.518 164.658 178.542 164.082C179.566 163.484 180.366 162.652 180.942 161.586C181.54 160.519 181.838 159.292 181.838 157.906C181.838 156.498 181.54 155.271 180.942 154.226C180.366 153.159 179.566 152.338 178.542 151.762C177.518 151.164 176.366 150.866 175.086 150.866C173.806 150.866 172.654 151.164 171.63 151.762C170.628 152.338 169.828 153.159 169.23 154.226C168.654 155.271 168.366 156.498 168.366 157.906C168.366 159.292 168.654 160.519 169.23 161.586C169.828 162.652 170.628 163.484 171.63 164.082C172.654 164.658 173.806 164.946 175.086 164.946ZM188.392 166.258V149.554H189.928V154.13L189.768 153.618C190.237 152.274 191.027 151.239 192.136 150.514C193.245 149.788 194.632 149.426 196.296 149.426V150.994C196.232 150.994 196.168 150.994 196.104 150.994C196.04 150.972 195.976 150.962 195.912 150.962C194.056 150.962 192.605 151.548 191.56 152.722C190.515 153.874 189.992 155.484 189.992 157.554V166.258H188.392ZM207.076 166.386C205.476 166.386 204.047 166.023 202.788 165.298C201.551 164.572 200.559 163.57 199.812 162.29C199.087 161.01 198.724 159.548 198.724 157.906C198.724 156.242 199.087 154.78 199.812 153.522C200.559 152.242 201.551 151.239 202.788 150.514C204.047 149.788 205.476 149.426 207.076 149.426C208.676 149.426 210.106 149.788 211.364 150.514C212.623 151.239 213.615 152.242 214.34 153.522C215.066 154.78 215.428 156.242 215.428 157.906C215.428 159.548 215.066 161.01 214.34 162.29C213.615 163.57 212.623 164.572 211.364 165.298C210.106 166.023 208.676 166.386 207.076 166.386ZM207.076 164.946C208.356 164.946 209.508 164.658 210.532 164.082C211.556 163.484 212.356 162.652 212.932 161.586C213.508 160.519 213.796 159.292 213.796 157.906C213.796 156.498 213.508 155.271 212.932 154.226C212.356 153.159 211.556 152.338 210.532 151.762C209.508 151.164 208.356 150.866 207.076 150.866C205.796 150.866 204.644 151.164 203.62 151.762C202.618 152.338 201.818 153.159 201.22 154.226C200.644 155.271 200.356 156.498 200.356 157.906C200.356 159.292 200.644 160.519 201.22 161.586C201.818 162.652 202.618 163.484 203.62 164.082C204.644 164.658 205.796 164.946 207.076 164.946ZM217.64 172.594C216.979 172.594 216.339 172.498 215.72 172.306C215.101 172.135 214.589 171.858 214.184 171.474L214.824 170.29C215.528 170.908 216.435 171.218 217.544 171.218C218.504 171.218 219.24 170.93 219.752 170.354C220.285 169.778 220.552 168.946 220.552 167.858V149.554H222.152V167.922C222.152 169.33 221.757 170.46 220.968 171.314C220.2 172.167 219.091 172.594 217.64 172.594ZM221.352 145.49C220.989 145.49 220.68 145.362 220.424 145.106C220.168 144.85 220.04 144.551 220.04 144.21C220.04 143.847 220.168 143.538 220.424 143.282C220.68 143.026 220.989 142.898 221.352 142.898C221.736 142.898 222.045 143.026 222.28 143.282C222.536 143.516 222.664 143.815 222.664 144.178C222.664 144.54 222.536 144.85 222.28 145.106C222.045 145.362 221.736 145.49 221.352 145.49ZM235.676 166.386C233.991 166.386 232.497 166.023 231.196 165.298C229.916 164.572 228.903 163.57 228.156 162.29C227.431 161.01 227.068 159.548 227.068 157.906C227.068 156.242 227.409 154.78 228.092 153.522C228.796 152.242 229.756 151.239 230.972 150.514C232.188 149.788 233.553 149.426 235.068 149.426C236.583 149.426 237.937 149.778 239.132 150.482C240.348 151.186 241.297 152.178 241.98 153.458C242.684 154.716 243.036 156.178 243.036 157.842C243.036 157.906 243.025 157.98 243.004 158.066C243.004 158.13 243.004 158.204 243.004 158.29H228.252V157.042H242.14L241.5 157.65C241.521 156.348 241.244 155.186 240.668 154.162C240.113 153.116 239.356 152.306 238.396 151.73C237.436 151.132 236.327 150.834 235.068 150.834C233.831 150.834 232.721 151.132 231.74 151.73C230.78 152.306 230.023 153.116 229.468 154.162C228.913 155.186 228.636 156.359 228.636 157.682V157.97C228.636 159.335 228.935 160.551 229.532 161.618C230.151 162.663 230.993 163.484 232.06 164.082C233.127 164.658 234.343 164.946 235.708 164.946C236.775 164.946 237.767 164.754 238.684 164.37C239.623 163.986 240.412 163.399 241.052 162.61L241.98 163.666C241.255 164.562 240.337 165.244 239.228 165.714C238.14 166.162 236.956 166.386 235.676 166.386ZM252.85 166.386C251.378 166.386 250.247 165.98 249.458 165.17C248.69 164.359 248.306 163.25 248.306 161.842V145.906H249.906V161.682C249.906 162.748 250.172 163.57 250.706 164.146C251.239 164.722 252.007 165.01 253.01 165.01C254.055 165.01 254.919 164.7 255.602 164.082L256.274 165.202C255.847 165.607 255.324 165.906 254.706 166.098C254.108 166.29 253.49 166.386 252.85 166.386ZM245.234 150.93V149.554H255.218V150.93H245.234ZM266.67 166.386C265.07 166.386 263.641 166.023 262.382 165.298C261.145 164.572 260.153 163.57 259.406 162.29C258.681 161.01 258.318 159.548 258.318 157.906C258.318 156.242 258.681 154.78 259.406 153.522C260.153 152.242 261.145 151.239 262.382 150.514C263.641 149.788 265.07 149.426 266.67 149.426C268.27 149.426 269.699 149.788 270.958 150.514C272.217 151.239 273.209 152.242 273.934 153.522C274.659 154.78 275.022 156.242 275.022 157.906C275.022 159.548 274.659 161.01 273.934 162.29C273.209 163.57 272.217 164.572 270.958 165.298C269.699 166.023 268.27 166.386 266.67 166.386ZM266.67 164.946C267.95 164.946 269.102 164.658 270.126 164.082C271.15 163.484 271.95 162.652 272.526 161.586C273.102 160.519 273.39 159.292 273.39 157.906C273.39 156.498 273.102 155.271 272.526 154.226C271.95 153.159 271.15 152.338 270.126 151.762C269.102 151.164 267.95 150.866 266.67 150.866C265.39 150.866 264.238 151.164 263.214 151.762C262.211 152.338 261.411 153.159 260.814 154.226C260.238 155.271 259.95 156.498 259.95 157.906C259.95 159.292 260.238 160.519 260.814 161.586C261.411 162.652 262.211 163.484 263.214 164.082C264.238 164.658 265.39 164.946 266.67 164.946Z" fill="white"/>
<path d="M49.4003 71.4235V24.2429L54.5607 29.4033H39.0796V19.8197H61.3429V71.4235H49.4003ZM92.4232 72.3081C88.1966 72.3081 84.4123 71.276 81.0704 69.2119C77.7284 67.0986 75.0991 64.0515 73.1824 60.0706C71.2657 56.0898 70.3073 51.2734 70.3073 45.6216C70.3073 39.9698 71.2657 35.1534 73.1824 31.1726C75.0991 27.1917 77.7284 24.1692 81.0704 22.1051C84.4123 19.9918 88.1966 18.9351 92.4232 18.9351C96.6989 18.9351 100.483 19.9918 103.776 22.1051C107.118 24.1692 109.747 27.1917 111.664 31.1726C113.581 35.1534 114.539 39.9698 114.539 45.6216C114.539 51.2734 113.581 56.0898 111.664 60.0706C109.747 64.0515 107.118 67.0986 103.776 69.2119C100.483 71.276 96.6989 72.3081 92.4232 72.3081ZM92.4232 62.2085C94.4382 62.2085 96.1829 61.6433 97.6573 60.513C99.1808 59.3826 100.36 57.5888 101.196 55.1314C102.08 52.6741 102.523 49.5042 102.523 45.6216C102.523 41.739 102.08 38.5691 101.196 36.1118C100.36 33.6545 99.1808 31.8606 97.6573 30.7302C96.1829 29.5999 94.4382 29.0347 92.4232 29.0347C90.4573 29.0347 88.7126 29.5999 87.1891 30.7302C85.7147 31.8606 84.5352 33.6545 83.6506 36.1118C82.8151 38.5691 82.3973 41.739 82.3973 45.6216C82.3973 49.5042 82.8151 52.6741 83.6506 55.1314C84.5352 57.5888 85.7147 59.3826 87.1891 60.513C88.7126 61.6433 90.4573 62.2085 92.4232 62.2085ZM127.787 71.4235L163.025 19.8197H171.798L136.56 71.4235H127.787ZM132.284 47.6858C129.778 47.6858 127.566 47.1206 125.649 45.9902C123.733 44.8107 122.209 43.1643 121.079 41.051C119.998 38.8885 119.457 36.3575 119.457 33.4579C119.457 30.5582 119.998 28.0518 121.079 25.9385C122.209 23.8252 123.733 22.1788 125.649 20.9993C127.566 19.8197 129.778 19.23 132.284 19.23C134.791 19.23 137.002 19.8197 138.919 20.9993C140.836 22.1788 142.335 23.8252 143.416 25.9385C144.497 28.0518 145.038 30.5582 145.038 33.4579C145.038 36.3575 144.497 38.8885 143.416 41.051C142.335 43.1643 140.836 44.8107 138.919 45.9902C137.002 47.1206 134.791 47.6858 132.284 47.6858ZM132.284 41.6407C133.906 41.6407 135.208 40.9773 136.191 39.6503C137.174 38.2742 137.666 36.2101 137.666 33.4579C137.666 30.7057 137.174 28.6661 136.191 27.3391C135.208 25.963 133.906 25.275 132.284 25.275C130.711 25.275 129.409 25.963 128.377 27.3391C127.394 28.6661 126.903 30.7057 126.903 33.4579C126.903 36.1609 127.394 38.2005 128.377 39.5766C129.409 40.9527 130.711 41.6407 132.284 41.6407ZM167.301 72.0132C164.844 72.0132 162.632 71.448 160.666 70.3177C158.75 69.1382 157.251 67.4918 156.169 65.3785C155.088 63.216 154.548 60.685 154.548 57.7853C154.548 54.8857 155.088 52.3792 156.169 50.2659C157.251 48.1526 158.75 46.5062 160.666 45.3267C162.632 44.1472 164.844 43.5575 167.301 43.5575C169.857 43.5575 172.093 44.1472 174.009 45.3267C175.926 46.5062 177.425 48.1526 178.506 50.2659C179.588 52.3792 180.128 54.8857 180.128 57.7853C180.128 60.685 179.588 63.216 178.506 65.3785C177.425 67.4918 175.926 69.1382 174.009 70.3177C172.093 71.448 169.857 72.0132 167.301 72.0132ZM167.301 65.9682C168.923 65.9682 170.225 65.3047 171.208 63.9778C172.191 62.6017 172.683 60.5375 172.683 57.7853C172.683 55.0823 172.191 53.0427 171.208 51.6666C170.225 50.2905 168.923 49.6025 167.301 49.6025C165.728 49.6025 164.426 50.2905 163.394 51.6666C162.411 52.9936 161.919 55.0331 161.919 57.7853C161.919 60.5375 162.411 62.6017 163.394 63.9778C164.426 65.3047 165.728 65.9682 167.301 65.9682Z" fill="white"/>
<path d="M205.351 71.5611C203.677 71.5611 202.163 71.1826 200.81 70.4258C199.48 69.646 198.425 68.5681 197.645 67.192C196.865 65.8159 196.475 64.2333 196.475 62.4444C196.475 60.6326 196.865 59.05 197.645 57.6969C198.425 56.3208 199.48 55.2543 200.81 54.4974C202.163 53.7177 203.677 53.3278 205.351 53.3278C206.934 53.3278 208.356 53.6947 209.617 54.4286C210.901 55.1626 211.911 56.2061 212.644 57.5593C213.401 58.9124 213.78 60.5408 213.78 62.4444C213.78 64.3021 213.413 65.9191 212.679 67.2952C211.945 68.6713 210.936 69.7263 209.651 70.4602C208.39 71.1941 206.957 71.5611 205.351 71.5611ZM205.454 70.013C206.83 70.013 208.057 69.7033 209.135 69.0841C210.236 68.4419 211.096 67.5474 211.716 66.4007C212.358 65.254 212.679 63.9352 212.679 62.4444C212.679 60.9307 212.358 59.6119 211.716 58.4881C211.096 57.3414 210.236 56.4584 209.135 55.8391C208.057 55.197 206.83 54.8759 205.454 54.8759C204.078 54.8759 202.84 55.197 201.739 55.8391C200.661 56.4584 199.801 57.3414 199.159 58.4881C198.539 59.6119 198.23 60.9307 198.23 62.4444C198.23 63.9352 198.539 65.254 199.159 66.4007C199.801 67.5474 200.661 68.4419 201.739 69.0841C202.84 69.7033 204.078 70.013 205.454 70.013ZM212.713 71.4235V65.5406L213.023 62.41L212.679 59.2794V45.8968H214.399V71.4235H212.713ZM228.944 71.5611C227.133 71.5611 225.527 71.1712 224.128 70.3914C222.752 69.6116 221.663 68.5337 220.86 67.1576C220.08 65.7815 219.69 64.2104 219.69 62.4444C219.69 60.6555 220.057 59.0844 220.791 57.7313C221.548 56.3552 222.58 55.2772 223.887 54.4974C225.195 53.7177 226.662 53.3278 228.291 53.3278C229.919 53.3278 231.376 53.7062 232.66 54.463C233.967 55.2199 234.988 56.2864 235.722 57.6625C236.479 59.0156 236.857 60.5867 236.857 62.3756C236.857 62.4444 236.846 62.5247 236.823 62.6164C236.823 62.6852 236.823 62.7655 236.823 62.8572H220.963V61.5155H235.894L235.206 62.1692C235.229 60.7702 234.931 59.5202 234.311 58.4193C233.715 57.2955 232.901 56.424 231.869 55.8047C230.837 55.1626 229.644 54.8415 228.291 54.8415C226.961 54.8415 225.768 55.1626 224.713 55.8047C223.681 56.424 222.867 57.2955 222.27 58.4193C221.674 59.5202 221.376 60.7816 221.376 62.2036V62.5132C221.376 63.9811 221.697 65.2884 222.339 66.4351C223.004 67.5589 223.91 68.4419 225.057 69.0841C226.204 69.7033 227.511 70.013 228.979 70.013C230.126 70.013 231.192 69.8065 232.178 69.3937C233.187 68.9809 234.036 68.3502 234.724 67.5016L235.722 68.6369C234.942 69.6001 233.956 70.3341 232.763 70.8386C231.593 71.3203 230.321 71.5611 228.944 71.5611Z" fill="white"/>
</svg>
