<svg width="243" height="174" viewBox="0 0 243 174" fill="none" xmlns="http://www.w3.org/2000/svg">
<path d="M8.27296 126.423L22.4025 94.7226H29.6484L43.8233 126.423H36.1245L24.531 98.4361H27.4294L15.7906 126.423H8.27296ZM15.3377 119.63L17.2851 114.06H33.5884L35.581 119.63H15.3377ZM47.1122 126.423V94.7226H54.4487V120.446H70.3444V126.423H47.1122ZM88.1299 126.967C83.6313 126.967 80.1141 125.714 77.578 123.208C75.0419 120.702 73.7739 117.125 73.7739 112.475V94.7226H81.1104V112.203C81.1104 115.222 81.7293 117.396 82.9671 118.725C84.205 120.053 85.941 120.717 88.1751 120.717C90.4093 120.717 92.1453 120.053 93.3831 118.725C94.621 117.396 95.2399 115.222 95.2399 112.203V94.7226H102.486V112.475C102.486 117.125 101.218 120.702 98.6817 123.208C96.1456 125.714 92.6284 126.967 88.1299 126.967ZM125.043 126.967C122.537 126.967 120.227 126.574 118.114 125.789C116.031 124.974 114.204 123.827 112.634 122.348C111.094 120.868 109.887 119.132 109.011 117.14C108.166 115.147 107.743 112.958 107.743 110.573C107.743 108.188 108.166 105.999 109.011 104.006C109.887 102.014 111.109 100.278 112.679 98.7984C114.249 97.319 116.091 96.1868 118.204 95.4019C120.318 94.5867 122.642 94.1791 125.179 94.1791C127.986 94.1791 130.507 94.6471 132.741 95.583C135.006 96.5189 136.908 97.8776 138.448 99.6588L133.738 104.006C132.59 102.799 131.338 101.908 129.979 101.334C128.62 100.731 127.141 100.429 125.541 100.429C124.001 100.429 122.597 100.67 121.329 101.153C120.061 101.636 118.959 102.331 118.023 103.237C117.117 104.142 116.408 105.214 115.895 106.452C115.412 107.69 115.17 109.063 115.17 110.573C115.17 112.052 115.412 113.411 115.895 114.649C116.408 115.887 117.117 116.974 118.023 117.91C118.959 118.815 120.046 119.51 121.284 119.993C122.552 120.476 123.941 120.717 125.45 120.717C126.899 120.717 128.303 120.491 129.662 120.038C131.051 119.555 132.394 118.755 133.692 117.638L137.859 122.936C136.138 124.235 134.13 125.231 131.836 125.925C129.571 126.62 127.307 126.967 125.043 126.967ZM131.156 121.985V110.075H137.859V122.936L131.156 121.985ZM158.758 126.967C154.26 126.967 150.742 125.714 148.206 123.208C145.67 120.702 144.402 117.125 144.402 112.475V94.7226H151.739V112.203C151.739 115.222 152.358 117.396 153.595 118.725C154.833 120.053 156.569 120.717 158.803 120.717C161.038 120.717 162.774 120.053 164.011 118.725C165.249 117.396 165.868 115.222 165.868 112.203V94.7226H173.114V112.475C173.114 117.125 171.846 120.702 169.31 123.208C166.774 125.714 163.257 126.967 158.758 126.967ZM187.112 107.493H202.373V113.2H187.112V107.493ZM187.655 120.536H204.909V126.423H180.364V94.7226H204.321V100.61H187.655V120.536ZM210.747 126.423V94.7226H218.083V120.446H233.979V126.423H210.747Z" fill="white"/>
<path d="M12.0729 166.386C10.6009 166.386 9.26754 166.044 8.07288 165.362C6.89954 164.679 5.96088 163.708 5.25688 162.45C4.57421 161.17 4.23288 159.655 4.23288 157.906C4.23288 156.156 4.57421 154.652 5.25688 153.394C5.96088 152.114 6.89954 151.132 8.07288 150.45C9.26754 149.767 10.6009 149.426 12.0729 149.426C13.6515 149.426 15.0595 149.788 16.2969 150.514C17.5555 151.218 18.5369 152.21 19.2409 153.49C19.9662 154.77 20.3289 156.242 20.3289 157.906C20.3289 159.57 19.9662 161.042 19.2409 162.322C18.5369 163.602 17.5555 164.604 16.2969 165.33C15.0595 166.034 13.6515 166.386 12.0729 166.386ZM3.68888 172.466V149.554H5.22488V155.026L4.96888 157.938L5.28888 160.85V172.466H3.68888ZM11.9769 164.946C13.2569 164.946 14.4089 164.658 15.4329 164.082C16.4569 163.484 17.2569 162.652 17.8329 161.586C18.4302 160.519 18.7289 159.292 18.7289 157.906C18.7289 156.498 18.4302 155.271 17.8329 154.226C17.2569 153.159 16.4569 152.338 15.4329 151.762C14.4089 151.164 13.2569 150.866 11.9769 150.866C10.6969 150.866 9.54488 151.164 8.52087 151.762C7.51821 152.338 6.71821 153.159 6.12088 154.226C5.54488 155.271 5.25688 156.498 5.25688 157.906C5.25688 159.292 5.54488 160.519 6.12088 161.586C6.71821 162.652 7.51821 163.484 8.52087 164.082C9.54488 164.658 10.6969 164.946 11.9769 164.946ZM32.0666 166.386C30.3813 166.386 28.888 166.023 27.5866 165.298C26.3066 164.572 25.2933 163.57 24.5466 162.29C23.8213 161.01 23.4586 159.548 23.4586 157.906C23.4586 156.242 23.8 154.78 24.4826 153.522C25.1866 152.242 26.1466 151.239 27.3626 150.514C28.5786 149.788 29.944 149.426 31.4586 149.426C32.9733 149.426 34.328 149.778 35.5226 150.482C36.7386 151.186 37.688 152.178 38.3706 153.458C39.0746 154.716 39.4266 156.178 39.4266 157.842C39.4266 157.906 39.416 157.98 39.3946 158.066C39.3946 158.13 39.3946 158.204 39.3946 158.29H24.6426V157.042H38.5306L37.8906 157.65C37.912 156.348 37.6346 155.186 37.0586 154.162C36.504 153.116 35.7466 152.306 34.7866 151.73C33.8266 151.132 32.7173 150.834 31.4586 150.834C30.2213 150.834 29.112 151.132 28.1306 151.73C27.1706 152.306 26.4133 153.116 25.8586 154.162C25.304 155.186 25.0266 156.359 25.0266 157.682V157.97C25.0266 159.335 25.3253 160.551 25.9226 161.618C26.5413 162.663 27.384 163.484 28.4506 164.082C29.5173 164.658 30.7333 164.946 32.0986 164.946C33.1653 164.946 34.1573 164.754 35.0746 164.37C36.0133 163.986 36.8026 163.399 37.4426 162.61L38.3706 163.666C37.6453 164.562 36.728 165.244 35.6186 165.714C34.5306 166.162 33.3466 166.386 32.0666 166.386ZM44.3764 166.258V142.514H45.9764V166.258H44.3764ZM59.2481 166.386C57.6481 166.386 56.2188 166.023 54.9601 165.298C53.7228 164.572 52.7308 163.57 51.9841 162.29C51.2588 161.01 50.8961 159.548 50.8961 157.906C50.8961 156.242 51.2588 154.78 51.9841 153.522C52.7308 152.242 53.7228 151.239 54.9601 150.514C56.2188 149.788 57.6481 149.426 59.2481 149.426C60.8481 149.426 62.2775 149.788 63.5361 150.514C64.7948 151.239 65.7868 152.242 66.5121 153.522C67.2375 154.78 67.6001 156.242 67.6001 157.906C67.6001 159.548 67.2375 161.01 66.5121 162.29C65.7868 163.57 64.7948 164.572 63.5361 165.298C62.2775 166.023 60.8481 166.386 59.2481 166.386ZM59.2481 164.946C60.5281 164.946 61.6801 164.658 62.7041 164.082C63.7281 163.484 64.5281 162.652 65.1041 161.586C65.6801 160.519 65.9681 159.292 65.9681 157.906C65.9681 156.498 65.6801 155.271 65.1041 154.226C64.5281 153.159 63.7281 152.338 62.7041 151.762C61.6801 151.164 60.5281 150.866 59.2481 150.866C57.9681 150.866 56.8161 151.164 55.7921 151.762C54.7895 152.338 53.9895 153.159 53.3921 154.226C52.8161 155.271 52.5281 156.498 52.5281 157.906C52.5281 159.292 52.8161 160.519 53.3921 161.586C53.9895 162.652 54.7895 163.484 55.7921 164.082C56.8161 164.658 57.9681 164.946 59.2481 164.946ZM89.1666 166.386C87.6946 166.386 86.3613 166.044 85.1666 165.362C83.9933 164.679 83.0546 163.708 82.3506 162.45C81.668 161.17 81.3266 159.655 81.3266 157.906C81.3266 156.156 81.668 154.652 82.3506 153.394C83.0546 152.114 83.9933 151.132 85.1666 150.45C86.3613 149.767 87.6946 149.426 89.1666 149.426C90.7453 149.426 92.1533 149.788 93.3906 150.514C94.6493 151.218 95.6306 152.21 96.3346 153.49C97.06 154.77 97.4226 156.242 97.4226 157.906C97.4226 159.57 97.06 161.042 96.3346 162.322C95.6306 163.602 94.6493 164.604 93.3906 165.33C92.1533 166.034 90.7453 166.386 89.1666 166.386ZM80.7826 172.466V149.554H82.3186V155.026L82.0626 157.938L82.3826 160.85V172.466H80.7826ZM89.0706 164.946C90.3506 164.946 91.5026 164.658 92.5266 164.082C93.5506 163.484 94.3506 162.652 94.9266 161.586C95.524 160.519 95.8226 159.292 95.8226 157.906C95.8226 156.498 95.524 155.271 94.9266 154.226C94.3506 153.159 93.5506 152.338 92.5266 151.762C91.5026 151.164 90.3506 150.866 89.0706 150.866C87.7906 150.866 86.6386 151.164 85.6146 151.762C84.612 152.338 83.812 153.159 83.2146 154.226C82.6386 155.271 82.3506 156.498 82.3506 157.906C82.3506 159.292 82.6386 160.519 83.2146 161.586C83.812 162.652 84.612 163.484 85.6146 164.082C86.6386 164.658 87.7906 164.946 89.0706 164.946ZM102.376 166.258V149.554H103.912V154.13L103.752 153.618C104.222 152.274 105.011 151.239 106.12 150.514C107.23 149.788 108.616 149.426 110.28 149.426V150.994C110.216 150.994 110.152 150.994 110.088 150.994C110.024 150.972 109.96 150.962 109.896 150.962C108.04 150.962 106.59 151.548 105.544 152.722C104.499 153.874 103.976 155.484 103.976 157.554V166.258H102.376ZM121.317 166.386C119.631 166.386 118.138 166.023 116.837 165.298C115.557 164.572 114.543 163.57 113.797 162.29C113.071 161.01 112.709 159.548 112.709 157.906C112.709 156.242 113.05 154.78 113.733 153.522C114.437 152.242 115.397 151.239 116.613 150.514C117.829 149.788 119.194 149.426 120.709 149.426C122.223 149.426 123.578 149.778 124.773 150.482C125.989 151.186 126.938 152.178 127.621 153.458C128.325 154.716 128.677 156.178 128.677 157.842C128.677 157.906 128.666 157.98 128.645 158.066C128.645 158.13 128.645 158.204 128.645 158.29H113.893V157.042H127.781L127.141 157.65C127.162 156.348 126.885 155.186 126.309 154.162C125.754 153.116 124.997 152.306 124.037 151.73C123.077 151.132 121.967 150.834 120.709 150.834C119.471 150.834 118.362 151.132 117.381 151.73C116.421 152.306 115.663 153.116 115.109 154.162C114.554 155.186 114.277 156.359 114.277 157.682V157.97C114.277 159.335 114.575 160.551 115.173 161.618C115.791 162.663 116.634 163.484 117.701 164.082C118.767 164.658 119.983 164.946 121.349 164.946C122.415 164.946 123.407 164.754 124.325 164.37C125.263 163.986 126.053 163.399 126.693 162.61L127.621 163.666C126.895 164.562 125.978 165.244 124.869 165.714C123.781 166.162 122.597 166.386 121.317 166.386ZM140.25 166.386C138.629 166.386 137.178 166.023 135.898 165.298C134.64 164.572 133.637 163.57 132.89 162.29C132.165 161.01 131.802 159.548 131.802 157.906C131.802 156.242 132.165 154.77 132.89 153.49C133.637 152.21 134.64 151.218 135.898 150.514C137.178 149.788 138.629 149.426 140.25 149.426C141.594 149.426 142.81 149.682 143.898 150.194C145.008 150.706 145.904 151.474 146.586 152.498L145.402 153.362C144.805 152.508 144.058 151.879 143.162 151.474C142.266 151.068 141.296 150.866 140.25 150.866C138.949 150.866 137.776 151.164 136.73 151.762C135.706 152.338 134.896 153.159 134.298 154.226C133.722 155.271 133.434 156.498 133.434 157.906C133.434 159.314 133.722 160.551 134.298 161.618C134.896 162.663 135.706 163.484 136.73 164.082C137.776 164.658 138.949 164.946 140.25 164.946C141.296 164.946 142.266 164.743 143.162 164.338C144.058 163.932 144.805 163.303 145.402 162.45L146.586 163.314C145.904 164.338 145.008 165.106 143.898 165.618C142.81 166.13 141.594 166.386 140.25 166.386ZM139.034 173.202C138.544 173.202 138.085 173.138 137.658 173.01C137.253 172.882 136.869 172.679 136.506 172.402L136.954 171.506C137.253 171.719 137.573 171.879 137.914 171.986C138.277 172.114 138.65 172.178 139.034 172.178C139.674 172.178 140.186 172.028 140.57 171.73C140.954 171.431 141.146 171.015 141.146 170.482C141.146 170.012 140.965 169.618 140.602 169.298C140.24 168.999 139.717 168.85 139.034 168.85H138.394L139.13 166.066H140.186L139.674 167.986C140.528 168.028 141.189 168.284 141.658 168.754C142.149 169.223 142.394 169.82 142.394 170.546C142.394 171.356 142.074 171.996 141.434 172.466C140.816 172.956 140.016 173.202 139.034 173.202ZM157.623 166.386C156.023 166.386 154.594 166.023 153.335 165.298C152.098 164.572 151.106 163.57 150.359 162.29C149.634 161.01 149.271 159.548 149.271 157.906C149.271 156.242 149.634 154.78 150.359 153.522C151.106 152.242 152.098 151.239 153.335 150.514C154.594 149.788 156.023 149.426 157.623 149.426C159.223 149.426 160.652 149.788 161.911 150.514C163.17 151.239 164.162 152.242 164.887 153.522C165.612 154.78 165.975 156.242 165.975 157.906C165.975 159.548 165.612 161.01 164.887 162.29C164.162 163.57 163.17 164.572 161.911 165.298C160.652 166.023 159.223 166.386 157.623 166.386ZM157.623 164.946C158.903 164.946 160.055 164.658 161.079 164.082C162.103 163.484 162.903 162.652 163.479 161.586C164.055 160.519 164.343 159.292 164.343 157.906C164.343 156.498 164.055 155.271 163.479 154.226C162.903 153.159 162.103 152.338 161.079 151.762C160.055 151.164 158.903 150.866 157.623 150.866C156.343 150.866 155.191 151.164 154.167 151.762C153.164 152.338 152.364 153.159 151.767 154.226C151.191 155.271 150.903 156.498 150.903 157.906C150.903 159.292 151.191 160.519 151.767 161.586C152.364 162.652 153.164 163.484 154.167 164.082C155.191 164.658 156.343 164.946 157.623 164.946ZM185.59 166.386C184.032 166.386 182.624 166.034 181.366 165.33C180.128 164.604 179.147 163.602 178.422 162.322C177.696 161.042 177.334 159.57 177.334 157.906C177.334 156.22 177.696 154.748 178.422 153.49C179.147 152.21 180.128 151.218 181.366 150.514C182.624 149.788 184.032 149.426 185.59 149.426C187.062 149.426 188.384 149.767 189.558 150.45C190.752 151.132 191.691 152.103 192.374 153.362C193.078 154.62 193.43 156.135 193.43 157.906C193.43 159.634 193.088 161.138 192.406 162.418C191.723 163.698 190.784 164.679 189.59 165.362C188.416 166.044 187.083 166.386 185.59 166.386ZM185.686 164.946C186.966 164.946 188.107 164.658 189.11 164.082C190.134 163.484 190.934 162.652 191.51 161.586C192.107 160.519 192.406 159.292 192.406 157.906C192.406 156.498 192.107 155.271 191.51 154.226C190.934 153.159 190.134 152.338 189.11 151.762C188.107 151.164 186.966 150.866 185.686 150.866C184.406 150.866 183.254 151.164 182.23 151.762C181.227 152.338 180.427 153.159 179.83 154.226C179.254 155.271 178.966 156.498 178.966 157.906C178.966 159.292 179.254 160.519 179.83 161.586C180.427 162.652 181.227 163.484 182.23 164.082C183.254 164.658 184.406 164.946 185.686 164.946ZM192.438 166.258V160.786L192.726 157.874L192.406 154.962V142.514H194.006V166.258H192.438ZM207.535 166.386C205.85 166.386 204.357 166.023 203.055 165.298C201.775 164.572 200.762 163.57 200.015 162.29C199.29 161.01 198.927 159.548 198.927 157.906C198.927 156.242 199.269 154.78 199.951 153.522C200.655 152.242 201.615 151.239 202.831 150.514C204.047 149.788 205.413 149.426 206.927 149.426C208.442 149.426 209.797 149.778 210.991 150.482C212.207 151.186 213.157 152.178 213.839 153.458C214.543 154.716 214.895 156.178 214.895 157.842C214.895 157.906 214.885 157.98 214.863 158.066C214.863 158.13 214.863 158.204 214.863 158.29H200.111V157.042H213.999L213.359 157.65C213.381 156.348 213.103 155.186 212.527 154.162C211.973 153.116 211.215 152.306 210.255 151.73C209.295 151.132 208.186 150.834 206.927 150.834C205.69 150.834 204.581 151.132 203.599 151.73C202.639 152.306 201.882 153.116 201.327 154.162C200.773 155.186 200.495 156.359 200.495 157.682V157.97C200.495 159.335 200.794 160.551 201.391 161.618C202.01 162.663 202.853 163.484 203.919 164.082C204.986 164.658 206.202 164.946 207.567 164.946C208.634 164.946 209.626 164.754 210.543 164.37C211.482 163.986 212.271 163.399 212.911 162.61L213.839 163.666C213.114 164.562 212.197 165.244 211.087 165.714C209.999 166.162 208.815 166.386 207.535 166.386ZM225.984 166.258V165.106L235.456 155.698C236.352 154.802 237.024 154.023 237.472 153.362C237.92 152.679 238.219 152.05 238.368 151.474C238.539 150.898 238.624 150.332 238.624 149.778C238.624 148.37 238.144 147.26 237.184 146.45C236.224 145.618 234.816 145.202 232.96 145.202C231.552 145.202 230.315 145.415 229.248 145.842C228.203 146.268 227.296 146.919 226.528 147.794L225.376 146.77C226.229 145.788 227.307 145.031 228.608 144.498C229.931 143.964 231.424 143.698 233.088 143.698C234.56 143.698 235.829 143.943 236.896 144.434C237.984 144.903 238.816 145.586 239.392 146.482C239.989 147.356 240.288 148.402 240.288 149.618C240.288 150.343 240.181 151.058 239.968 151.762C239.776 152.444 239.413 153.17 238.88 153.938C238.368 154.706 237.621 155.58 236.64 156.562L227.744 165.426L227.2 164.786H241.376V166.258H225.984Z" fill="white"/>
<path d="M51.4961 72.3081C47.9084 72.3081 44.3453 71.8412 40.8068 70.9074C37.2682 69.9245 34.2703 68.5484 31.813 66.7791L36.4573 57.6379C38.4232 59.0631 40.7085 60.1935 43.3132 61.029C45.918 61.8645 48.5473 62.2822 51.2012 62.2822C54.1991 62.2822 56.5582 61.6925 58.2783 60.513C59.9984 59.3334 60.8585 57.7116 60.8585 55.6475C60.8585 53.6816 60.0967 52.1335 58.5732 51.0031C57.0496 49.8728 54.5923 49.3076 51.2012 49.3076H45.746V41.4196L60.1213 25.1276L61.4482 29.4033H34.3932V19.8197H70.5158V27.5603L56.2141 43.8523L50.1691 40.3875H53.634C59.9738 40.3875 64.7656 41.8128 68.0093 44.6633C71.2529 47.5137 72.8748 51.1751 72.8748 55.6475C72.8748 58.5471 72.113 61.2747 70.5895 63.8303C69.0659 66.3368 66.7315 68.3764 63.5861 69.9491C60.4407 71.5218 56.4107 72.3081 51.4961 72.3081Z" fill="white"/>
<path d="M100.237 71.5611C98.5628 71.5611 97.0491 71.1826 95.696 70.4258C94.3657 69.646 93.3107 68.5681 92.5309 67.192C91.7511 65.8159 91.3612 64.2333 91.3612 62.4444C91.3612 60.6326 91.7511 59.05 92.5309 57.6969C93.3107 56.3208 94.3657 55.2543 95.696 54.4974C97.0491 53.7177 98.5628 53.3278 100.237 53.3278C101.82 53.3278 103.242 53.6947 104.503 54.4286C105.787 55.1626 106.796 56.2061 107.53 57.5593C108.287 58.9124 108.666 60.5408 108.666 62.4444C108.666 64.3021 108.299 65.9191 107.565 67.2952C106.831 68.6713 105.822 69.7263 104.537 70.4602C103.276 71.1941 101.843 71.5611 100.237 71.5611ZM100.34 70.013C101.716 70.013 102.943 69.7033 104.021 69.0841C105.122 68.4419 105.982 67.5474 106.602 66.4007C107.244 65.254 107.565 63.9352 107.565 62.4444C107.565 60.9307 107.244 59.6119 106.602 58.4881C105.982 57.3414 105.122 56.4584 104.021 55.8391C102.943 55.197 101.716 54.8759 100.34 54.8759C98.9642 54.8759 97.7257 55.197 96.6248 55.8391C95.5469 56.4584 94.6868 57.3414 94.0446 58.4881C93.4254 59.6119 93.1158 60.9307 93.1158 62.4444C93.1158 63.9352 93.4254 65.254 94.0446 66.4007C94.6868 67.5474 95.5469 68.4419 96.6248 69.0841C97.7257 69.7033 98.9642 70.013 100.34 70.013ZM107.599 71.4235V65.5406L107.909 62.41L107.565 59.2794V45.8968H109.285V71.4235H107.599ZM116.537 71.4235V53.4654H118.257V71.4235H116.537ZM117.397 49.0963C117.007 49.0963 116.675 48.9586 116.4 48.6834C116.124 48.4082 115.987 48.0871 115.987 47.7202C115.987 47.3303 116.124 46.9977 116.4 46.7225C116.675 46.4473 117.007 46.3097 117.397 46.3097C117.81 46.3097 118.143 46.4473 118.395 46.7225C118.67 46.9748 118.808 47.2959 118.808 47.6858C118.808 48.0756 118.67 48.4082 118.395 48.6834C118.143 48.9586 117.81 49.0963 117.397 49.0963ZM136.826 71.4235V67.3296L136.757 66.7103V59.9674C136.757 58.2932 136.298 57.0203 135.381 56.1488C134.486 55.2772 133.168 54.8415 131.425 54.8415C130.186 54.8415 129.028 55.0593 127.95 55.4951C126.895 55.9079 125.989 56.4469 125.232 57.112L124.372 55.8735C125.266 55.0708 126.344 54.4516 127.606 54.0158C128.867 53.5571 130.186 53.3278 131.562 53.3278C133.787 53.3278 135.495 53.8897 136.688 55.0135C137.881 56.1373 138.477 57.8115 138.477 60.0362V71.4235H136.826ZM130.358 71.5611C129.028 71.5611 127.87 71.3547 126.883 70.9418C125.92 70.5061 125.175 69.8983 124.647 69.1185C124.143 68.3387 123.89 67.4442 123.89 66.4351C123.89 65.5177 124.097 64.692 124.51 63.9581C124.945 63.2013 125.656 62.5935 126.643 62.1348C127.629 61.6532 128.948 61.4123 130.599 61.4123H137.204V62.754H130.633C128.776 62.754 127.468 63.0981 126.711 63.7861C125.977 64.4742 125.611 65.3342 125.611 66.3663C125.611 67.513 126.046 68.4304 126.918 69.1185C127.789 69.8065 129.016 70.1506 130.599 70.1506C132.113 70.1506 133.385 69.8065 134.418 69.1185C135.473 68.4304 136.252 67.4328 136.757 66.1255L137.239 67.2952C136.757 68.6025 135.931 69.646 134.762 70.4258C133.615 71.1826 132.147 71.5611 130.358 71.5611ZM150.105 71.5611C148.615 71.5611 147.216 71.3432 145.908 70.9074C144.624 70.4717 143.626 69.9212 142.915 69.2561L143.706 67.88C144.395 68.4763 145.312 68.9924 146.459 69.4281C147.605 69.8409 148.844 70.0474 150.174 70.0474C152.055 70.0474 153.408 69.7377 154.234 69.1185C155.059 68.4993 155.472 67.6851 155.472 66.6759C155.472 65.942 155.254 65.3686 154.818 64.9558C154.406 64.52 153.844 64.1875 153.133 63.9581C152.422 63.7288 151.642 63.5453 150.793 63.4077C149.945 63.2471 149.096 63.0751 148.248 62.8916C147.399 62.7082 146.619 62.4444 145.908 62.1004C145.197 61.7564 144.624 61.2862 144.188 60.6899C143.775 60.0706 143.569 59.2565 143.569 58.2473C143.569 57.3299 143.821 56.5043 144.326 55.7703C144.83 55.0364 145.587 54.4516 146.596 54.0158C147.605 53.5571 148.867 53.3278 150.381 53.3278C151.504 53.3278 152.628 53.4883 153.752 53.8094C154.899 54.1305 155.828 54.5548 156.539 55.0823L155.747 56.4584C154.991 55.885 154.142 55.4722 153.202 55.2199C152.261 54.9676 151.309 54.8415 150.346 54.8415C148.603 54.8415 147.319 55.1626 146.493 55.8047C145.69 56.4469 145.289 57.2496 145.289 58.2129C145.289 58.9698 145.495 59.5775 145.908 60.0362C146.344 60.472 146.917 60.816 147.628 61.0683C148.339 61.2977 149.119 61.4926 149.968 61.6532C150.816 61.7908 151.665 61.9513 152.514 62.1348C153.362 62.3183 154.142 62.582 154.853 62.926C155.564 63.2471 156.126 63.7058 156.539 64.3021C156.974 64.8755 157.192 65.6553 157.192 66.6415C157.192 67.6277 156.917 68.4878 156.367 69.2217C155.839 69.9556 155.048 70.529 153.993 70.9418C152.938 71.3547 151.642 71.5611 150.105 71.5611ZM177.743 71.5611C176.069 71.5611 174.555 71.1826 173.202 70.4258C171.872 69.646 170.817 68.5681 170.037 67.192C169.258 65.8159 168.868 64.2333 168.868 62.4444C168.868 60.6326 169.258 59.05 170.037 57.6969C170.817 56.3208 171.872 55.2543 173.202 54.4974C174.555 53.7177 176.069 53.3278 177.743 53.3278C179.326 53.3278 180.748 53.6947 182.009 54.4286C183.294 55.1626 184.303 56.2061 185.037 57.5593C185.794 58.9124 186.172 60.5408 186.172 62.4444C186.172 64.3021 185.805 65.9191 185.071 67.2952C184.337 68.6713 183.328 69.7263 182.044 70.4602C180.782 71.1941 179.349 71.5611 177.743 71.5611ZM177.847 70.013C179.223 70.013 180.45 69.7033 181.528 69.0841C182.629 68.4419 183.489 67.5474 184.108 66.4007C184.75 65.254 185.071 63.9352 185.071 62.4444C185.071 60.9307 184.75 59.6119 184.108 58.4881C183.489 57.3414 182.629 56.4584 181.528 55.8391C180.45 55.197 179.223 54.8759 177.847 54.8759C176.471 54.8759 175.232 55.197 174.131 55.8391C173.053 56.4584 172.193 57.3414 171.551 58.4881C170.932 59.6119 170.622 60.9307 170.622 62.4444C170.622 63.9352 170.932 65.254 171.551 66.4007C172.193 67.5474 173.053 68.4419 174.131 69.0841C175.232 69.7033 176.471 70.013 177.847 70.013ZM185.106 71.4235V65.5406L185.415 62.41L185.071 59.2794V45.8968H186.791V71.4235H185.106ZM201.337 71.5611C199.525 71.5611 197.92 71.1712 196.52 70.3914C195.144 69.6116 194.055 68.5337 193.252 67.1576C192.472 65.7815 192.083 64.2104 192.083 62.4444C192.083 60.6555 192.45 59.0844 193.183 57.7313C193.94 56.3552 194.972 55.2772 196.28 54.4974C197.587 53.7177 199.055 53.3278 200.683 53.3278C202.312 53.3278 203.768 53.7062 205.052 54.463C206.36 55.2199 207.38 56.2864 208.114 57.6625C208.871 59.0156 209.249 60.5867 209.249 62.3756C209.249 62.4444 209.238 62.5247 209.215 62.6164C209.215 62.6852 209.215 62.7655 209.215 62.8572H193.355V61.5155H208.286L207.598 62.1692C207.621 60.7702 207.323 59.5202 206.704 58.4193C206.107 57.2955 205.293 56.424 204.261 55.8047C203.229 55.1626 202.036 54.8415 200.683 54.8415C199.353 54.8415 198.16 55.1626 197.105 55.8047C196.073 56.424 195.259 57.2955 194.663 58.4193C194.066 59.5202 193.768 60.7816 193.768 62.2036V62.5132C193.768 63.9811 194.089 65.2884 194.732 66.4351C195.397 67.5589 196.303 68.4419 197.449 69.0841C198.596 69.7033 199.903 70.013 201.371 70.013C202.518 70.013 203.584 69.8065 204.571 69.3937C205.58 68.9809 206.428 68.3502 207.116 67.5016L208.114 68.6369C207.334 69.6001 206.348 70.3341 205.155 70.8386C203.986 71.3203 202.713 71.5611 201.337 71.5611Z" fill="white"/>
</svg>
